<?xml version="1.0" encoding="UTF-8"?>
<svg xmlns="http://www.w3.org/2000/svg" xmlns:xlink="http://www.w3.org/1999/xlink" width="60px" height="60px" viewBox="0 0 60 60" version="1.1">
    <!-- Generator: Sketch 52.6 (67491) - http://www.bohemiancoding.com/sketch -->
    <title>047 - Discount Campaign</title>
    <desc>Created with Sketch.</desc>
    <g id="Page-1" stroke="none" stroke-width="1" fill="none" fill-rule="evenodd">
        <g id="047---Discount-Campaign" transform="translate(0.000000, -1.000000)">
            <g id="Icons_copy" transform="translate(1.000000, 5.000000)">
                <path d="M19.56,33.06 L11.07,41.55 C10.6948635,41.9255541 10.1858185,42.1365733 9.655,42.1365733 C9.1241815,42.1365733 8.61513651,41.9255541 8.24,41.55 L1.17,34.48 C-0.389783892,32.9157175 -0.389783892,30.3842825 1.17,28.82 L8.24,21.75 L19.55,33.06 L19.56,33.06 Z" id="Path" fill="#FFDC00"/>
                <path d="M40.48,23.36 L19.56,33.06 L19.55,33.06 L8.24,21.75 L17.93,0.84 C18.0641012,0.53943021 18.3375153,0.324092414 18.6611411,0.264161715 C18.9847668,0.204231017 19.3171604,0.307382214 19.55,0.54 L25.92,6.9 L34.41,15.39 L40.77,21.75 C40.9988525,21.9815064 41.1006977,22.3099177 41.0429908,22.6302903 C40.9852839,22.9506629 40.7752481,23.2228968 40.48,23.36 Z" id="Path" fill="#FFDC00"/>
                <path d="M40.77,21.75 L34.41,15.39 L25.92,6.9 L19.55,0.54 C19.3171604,0.307382214 18.9847668,0.204231017 18.6611411,0.264161715 C18.3375153,0.324092414 18.0641012,0.53943021 17.93,0.84 L17.589,1.577 L22.92,6.9 L31.41,15.39 L37.77,21.75 C37.9988525,21.9815064 38.1006977,22.3099177 38.0429908,22.6302903 C37.9852839,22.9506629 37.7752481,23.2228968 37.48,23.36 L18.6,32.113 L19.547,33.06 L19.557,33.06 L40.477,23.36 C40.7727074,23.2234983 40.9834141,22.9515418 41.0417283,22.6311124 C41.1000425,22.3106829 40.9986575,21.9819296 40.77,21.75 Z" id="Path" fill="#FF8401"/>
                <path d="M36.16,11.14 C36.1653411,12.7330737 35.5355427,14.2625843 34.41,15.39 L25.92,6.9 C27.6358946,5.18623758 30.2147366,4.67393444 32.4553881,5.60170419 C34.6960396,6.52947394 36.1578669,8.71486676 36.16,11.14 Z" id="Path" fill="#FF8401"/>
                <path d="M24.51,49.33 L23.09,50.74 C22.7148635,51.1155541 22.2058185,51.3265733 21.675,51.3265733 C21.1441815,51.3265733 20.6351365,51.1155541 20.26,50.74 L11.07,41.55 L15.31,37.31 L24.51,46.5 C24.8855541,46.8751365 25.0965733,47.3841815 25.0965733,47.915 C25.0965733,48.4458185 24.8855541,48.9548635 24.51,49.33 Z" id="Path" fill="#808080"/>
                <path d="M57.881,40.584 L56.337,38.113 L56.684,35.203 C56.7196336,34.9019345 56.5787197,34.6072611 56.322,34.446 L53.892,32.916 L52.976,30.151 C52.8793029,29.8580655 52.6198108,29.6490629 52.313,29.617 L49.49,29.317 L47.5,27.242 C47.283194,27.0157895 46.9527434,26.9399548 46.659,27.049 L44,28.035 L41.336,27.049 C41.0425621,26.9401235 40.7124873,27.0159621 40.496,27.242 L38.509,29.316 L35.686,29.616 C35.379566,29.6484351 35.120549,29.8573703 35.024,30.15 L34.107,32.916 L31.677,34.446 C31.4206622,34.6075223 31.2801621,34.9021443 31.316,35.203 L31.663,38.112 L30.119,40.583 C29.9599459,40.8375284 29.9599459,41.1604716 30.119,41.415 L31.663,43.886 L31.316,46.796 C31.2803664,47.0970655 31.4212803,47.3917389 31.678,47.553 L34.108,49.083 L35.024,51.848 C35.1206971,52.1409345 35.3801892,52.3499371 35.687,52.382 L38.51,52.682 L40.5,54.758 C40.716806,54.9842105 41.0472566,55.0600452 41.341,54.951 L44,53.965 L46.664,54.951 C46.9574379,55.0598765 47.2875127,54.9840379 47.504,54.758 L49.491,52.684 L52.314,52.384 C52.620434,52.3515649 52.879451,52.1426297 52.976,51.85 L53.893,49.084 L56.323,47.554 C56.5793378,47.3924777 56.7198379,47.0978557 56.684,46.797 L56.337,43.888 L57.881,41.417 C58.0404711,41.1622304 58.0404711,40.8387696 57.881,40.584 Z" id="Path" fill="#DB4E6C"/>
                <path d="M57.881,40.584 L56.337,38.113 L56.684,35.203 C56.7196336,34.9019345 56.5787197,34.6072611 56.322,34.446 L53.892,32.916 L52.976,30.151 C52.8793029,29.8580655 52.6198108,29.6490629 52.313,29.617 L49.49,29.317 L47.5,27.242 C47.283194,27.0157895 46.9527434,26.9399548 46.659,27.049 L44.928,27.69 L46.486,29.316 L49.309,29.616 C49.6158108,29.6480629 49.8753029,29.8570655 49.972,30.15 L50.888,32.915 L53.318,34.445 C53.5747197,34.6062611 53.7156336,34.9009345 53.68,35.202 L53.333,38.112 L54.877,40.583 C55.0360541,40.8375284 55.0360541,41.1604716 54.877,41.415 L53.333,43.886 L53.68,46.795 C53.7158379,47.0958557 53.5753378,47.3904777 53.319,47.552 L50.889,49.082 L49.973,51.848 C49.8756525,52.1404833 49.6165087,52.3492055 49.31,52.382 L46.487,52.682 L44.933,54.31 L46.664,54.951 C46.9574379,55.0598765 47.2875127,54.9840379 47.504,54.758 L49.491,52.684 L52.314,52.384 C52.6205087,52.3512055 52.8796525,52.1424833 52.977,51.85 L53.893,49.084 L56.323,47.554 C56.5793378,47.3924777 56.7198379,47.0978557 56.684,46.797 L56.337,43.888 L57.881,41.417 C58.0404711,41.1622304 58.0404711,40.8387696 57.881,40.584 Z" id="Path" fill="#A43B51"/>
                <circle id="Oval" fill="#FFFFFF" cx="39.5" cy="36.5" r="2.5"/>
                <circle id="Oval" fill="#FFFFFF" cx="48.5" cy="45.5" r="2.5"/>
            </g>
            <g id="Icons_copy_2" transform="translate(1.000000, 5.000000)" fill="#FFFFFF">
                <path d="M11.24,41.55 L4.17,34.48 C2.61021611,32.9157175 2.61021611,30.3842825 4.17,28.82 L11.24,21.75 L20.589,1.577 L19.55,0.54 C19.3171604,0.307382214 18.9847668,0.204231017 18.6611411,0.264161715 C18.3375153,0.324092414 18.0641012,0.53943021 17.93,0.84 L17.589,1.577 L8.24,21.75 L1.17,28.82 C-0.389783892,30.3842825 -0.389783892,32.9157175 1.17,34.48 L8.24,41.55 C8.61513651,41.9255541 9.1241815,42.1365733 9.655,42.1365733 C10.1858185,42.1365733 10.6948635,41.9255541 11.07,41.55 L11.24,41.55 Z" id="Path"/>
            </g>
            <g id="Icons">
                <rect id="Rectangle" fill="#FFFFFF" transform="translate(10.923317, 23.121595) rotate(-65.136000) translate(-10.923317, -23.121595) " x="6.9233168" y="22.1215949" width="8" height="2"/>
                <path d="M10.943,24.121 C10.5857344,24.1226077 10.2547497,23.9334944 10.0747245,23.6248971 C9.89469944,23.3162999 9.89298405,22.935102 10.0702245,22.6248971 C10.2474651,22.3146922 10.5767344,22.1226077 10.934,22.121 L10.943,22.121 C11.4952847,22.121 11.943,22.5687153 11.943,23.121 C11.943,23.6732847 11.4952847,24.121 10.943,24.121 Z" id="Path" fill="#000000"/>
                <path d="M19.854,10.984 L13.139,25.477 C12.9731186,25.8033632 12.9988388,26.1942844 13.2060506,26.4961004 C13.4132623,26.7979163 13.7688383,26.9623751 14.1330086,26.9248313 C14.497179,26.8872874 14.8117231,26.6537431 14.953,26.316 L21.668,11.824 C21.8313447,11.4980128 21.8043121,11.1089583 21.5974539,10.8086938 C21.3905956,10.5084292 21.0367041,10.3445544 20.6739116,10.3810336 C20.3111191,10.4175128 19.9969378,10.6485631 19.854,10.984 Z" id="Path" fill="#000000"/>
                <path d="M26.973,10.544 L21.266,4.844 C20.8031568,4.37751392 20.1406888,4.16815898 19.4938314,4.28395445 C18.8469739,4.39974991 18.2982726,4.82591911 18.026,5.424 L11.7,19.071 C11.5497698,19.3952185 11.5839199,19.7749556 11.7895863,20.0671681 C11.9952527,20.3593805 12.3411898,20.5196742 12.6970863,20.4876681 C13.0529829,20.4556619 13.3647698,20.2362185 13.515,19.912 L19.839,6.26 L19.848,6.248 L41.067,27.458 C41.3195868,27.7107654 41.6878353,27.8095768 42.03303,27.717213 C42.3782246,27.6248491 42.6479221,27.3553422 42.74053,27.010213 C42.8331378,26.6650837 42.7345868,26.2967654 42.482,26.044 L36.763,20.33 C38.8517572,17.5462989 38.5749063,13.6501259 36.1135197,11.189745 C33.6521331,8.72936406 29.7558472,8.45410542 26.973,10.544 Z M36.163,16.144 C36.1657519,17.1249772 35.8776111,18.0847503 35.335,18.902 L28.4,11.971 C29.9355456,10.955007 31.9052234,10.8651553 33.526893,11.737124 C35.1485627,12.6090928 36.1597799,14.3017663 36.159,16.143 L36.163,16.144 Z" id="Shape" fill="#000000" fill-rule="nonzero"/>
                <path d="M21.971,46.549 L23.385,45.134 C24.9465278,43.5720006 24.9465278,41.0399994 23.385,39.478 L22.272,38.365 L32.352,33.7 C32.6874369,33.5570622 32.9184872,33.2428809 32.9549664,32.8800884 C32.9914456,32.5172959 32.8275708,32.1634044 32.5273062,31.9565461 C32.2270417,31.7496879 31.8379872,31.7226553 31.512,31.886 L20.765,36.858 L20.557,36.649 L9.949,26.042 C9.92023379,26.0208161 9.89017555,26.0014453 9.859,25.984 C9.47439671,25.6676763 8.91439467,25.6874007 8.553,26.03 C8.548,26.03 8.54,26.037 8.535,26.042 L1.466,33.112 C-0.48283477,35.0665523 -0.48283477,38.2294477 1.466,40.184 L8.536,47.256 C9.43094452,48.1574824 10.8007123,48.3887262 11.942,47.831 L20.558,56.448 C21.7310908,57.6152971 23.6269092,57.6152971 24.8,56.448 L26.214,55.034 C26.776719,54.4713763 27.0928593,53.7082375 27.0928593,52.9125 C27.0928593,52.1167625 26.776719,51.3536237 26.214,50.791 L21.971,46.549 Z M21.971,43.72 L20.556,45.135 L17.728,42.306 L20.557,39.478 L21.971,40.892 C22.7517639,41.6729997 22.7517639,42.9390003 21.971,43.72 Z M9.949,45.842 L8.535,44.427 L11.364,41.6 C11.6167654,41.3474132 11.7155768,40.9791647 11.623213,40.63397 C11.5308491,40.2887754 11.2613423,40.0190779 10.916213,39.92647 C10.5710837,39.8338621 10.2027654,39.9324132 9.95,40.185 L7.121,43.013 L4.293,40.185 L7.121,37.355 C7.38095658,37.1039255 7.4852126,36.7321221 7.39369716,36.3824927 C7.30218172,36.0328632 7.02913676,35.7598183 6.67950732,35.6683028 C6.32987789,35.5767874 5.95807447,35.6810434 5.707,35.941 L2.879,38.77 C2.31628095,38.2073763 2.00014067,37.4442375 2.00014067,36.6485 C2.00014067,35.8527625 2.31628095,35.0896237 2.879,34.527 L9.241,28.164 L19.141,38.064 L15.608,41.6 L14.108,43.1 L11.363,45.845 C10.9716724,46.2345547 10.3386711,46.2332117 9.949,45.842 Z M24.8,53.618 L23.386,55.032 C22.9955001,55.4223819 22.3624999,55.4223819 21.972,55.032 L13.486,46.547 L16.315,43.718 L24.8,52.205 C24.9875494,52.3924927 25.0929434,52.6468052 25.093,52.912 C25.094124,53.1771352 24.9885286,53.4315734 24.8,53.618 Z" id="Shape" fill="#000000" fill-rule="nonzero"/>
                <path d="M40.354,5.535 L38.233,7.657 C37.9730434,7.90807447 37.8687874,8.27987789 37.9603028,8.62950732 C38.0518183,8.97913676 38.3248632,9.25218172 38.6744927,9.34369716 C39.0241221,9.4352126 39.3959255,9.33095658 39.647,9.071 L41.769,6.949 C42.1594653,6.55825854 42.1592414,5.92496533 41.7685,5.53450001 C41.3777585,5.1440347 40.7444653,5.14425855 40.354,5.535 Z" id="Path" fill="#000000"/>
                <path d="M36.113,6.535 C36.5882686,6.535097 36.9979463,6.20066625 37.093,5.735 L37.8,2.2 C37.9104569,1.65848481 37.5610152,1.12995699 37.0195,1.01950004 C36.4779848,0.909043092 35.949457,1.25848482 35.839,1.8 L35.132,5.335 C35.0234782,5.87651476 35.3744861,6.40347418 35.916,6.512 C35.9807625,6.52605431 36.0467417,6.53375745 36.113,6.535 Z" id="Path" fill="#000000"/>
                <path d="M40.788,11.389 C40.8830537,11.8546663 41.2927314,12.189097 41.768,12.189 C41.835148,12.1896864 41.9021824,12.1833181 41.968,12.17 L45.504,11.463 C45.8551312,11.3936302 46.1424132,11.1418875 46.2572841,10.8029038 C46.372155,10.4639201 46.2970965,10.0893916 46.0604727,9.8208502 C45.823849,9.55230883 45.4617459,9.43070804 45.111,9.502 L41.575,10.209 C41.3137714,10.2603938 41.0838211,10.4138353 40.9360965,10.6353283 C40.7883719,10.8568214 40.7350699,11.1280783 40.788,11.389 Z" id="Path" fill="#000000"/>
                <path d="M59.729,45.054 L58.371,42.882 L58.677,40.322 C58.7576264,39.6378477 58.4378175,38.9682721 57.855,38.601 L55.729,37.261 L54.929,34.836 C54.7091392,34.1731876 54.1231437,33.6993125 53.429,33.623 L50.969,33.36 L49.234,31.549 C48.740745,31.0367645 47.9911627,30.8648708 47.324,31.111 L45,31.969 L42.683,31.111 C42.0155511,30.8637381 41.2649969,31.0366406 40.773,31.551 L39.04,33.36 L36.578,33.623 C35.8839038,33.7001995 35.2981841,34.174242 35.078,34.837 L34.278,37.262 L32.144,38.6 C31.5639701,38.9692704 31.2449888,39.636725 31.322,40.32 L31.628,42.88 L30.271,45.053 C29.9060738,45.6305156 29.9060738,46.3664844 30.271,46.944 L31.629,49.116 L31.323,51.676 C31.2423736,52.3601523 31.5621825,53.0297279 32.145,53.397 L34.271,54.737 L35.071,57.162 C35.2908608,57.8248124 35.8768563,58.2986875 36.571,58.375 L39.031,58.638 L40.766,60.449 C41.2585853,60.9624179 42.0089248,61.1344853 42.676,60.887 L45,60.031 L47.317,60.889 C47.9844664,61.1359893 48.7348681,60.9631219 49.227,60.449 L50.96,58.64 L53.422,58.377 C54.1160962,58.2998005 54.7018159,57.825758 54.922,57.163 L55.722,54.738 L57.849,53.398 C58.4290299,53.0287296 58.7480112,52.361275 58.671,51.678 L58.365,49.118 L59.722,46.945 C60.0869929,46.367865 60.0869929,45.632135 59.722,45.055 L59.729,45.054 Z M56.489,48.354 C56.3686177,48.5473032 56.3178174,48.7759047 56.345,49.002 L56.676,51.776 L54.359,53.233 C54.1632732,53.3576596 54.0163879,53.5458564 53.943,53.766 L53.07,56.4 L50.385,56.686 C50.1503915,56.7101132 49.9318552,56.8163708 49.768,56.986 L47.879,58.959 L45.348,58.021 C45.1224021,57.9360312 44.8735979,57.9360312 44.648,58.021 L42.117,58.959 L40.227,56.987 C40.0640172,56.8172954 39.8460685,56.710979 39.612,56.687 L36.93,56.4 L36.057,53.767 C35.9842204,53.546792 35.8371628,53.3587279 35.641,53.235 L33.325,51.78 L33.656,49.005 C33.6831191,48.7784598 33.6319552,48.5494574 33.511,48.356 L32.038,46 L33.511,43.643 C33.6302645,43.4510902 33.6810214,43.2244466 33.655,43 L33.324,40.226 L35.641,38.769 C35.8367268,38.6443404 35.9836121,38.4561436 36.057,38.236 L36.93,35.6 L39.615,35.314 C39.8496085,35.2898868 40.0681448,35.1836292 40.232,35.014 L42.121,33.041 L44.652,33.979 C44.8775979,34.0639688 45.1264021,34.0639688 45.352,33.979 L47.883,33.041 L49.773,35.013 C49.9359828,35.1827046 50.1539315,35.289021 50.388,35.313 L53.074,35.6 L53.947,38.233 C54.0197796,38.453208 54.1668372,38.6412721 54.363,38.765 L56.679,40.223 L56.344,43 C56.3168809,43.2265402 56.3680448,43.4555426 56.489,43.649 L57.962,46 L56.489,48.354 Z" id="Shape" fill="#000000" fill-rule="nonzero"/>
                <path d="M40.5,45 C42.4329966,45 44,43.4329966 44,41.5 C44,39.5670034 42.4329966,38 40.5,38 C38.5670034,38 37,39.5670034 37,41.5 C37,43.4329966 38.5670034,45 40.5,45 Z M40.5,40 C41.3284271,40 42,40.6715729 42,41.5 C42,42.3284271 41.3284271,43 40.5,43 C39.6715729,43 39,42.3284271 39,41.5 C39,40.6715729 39.6715729,40 40.5,40 Z" id="Shape" fill="#000000" fill-rule="nonzero"/>
                <path d="M49.5,47 C47.5670034,47 46,48.5670034 46,50.5 C46,52.4329966 47.5670034,54 49.5,54 C51.4329966,54 53,52.4329966 53,50.5 C53,48.5670034 51.4329966,47 49.5,47 Z M49.5,52 C48.6715729,52 48,51.3284271 48,50.5 C48,49.6715729 48.6715729,49 49.5,49 C50.3284271,49 51,49.6715729 51,50.5 C51,51.3284271 50.3284271,52 49.5,52 Z" id="Shape" fill="#000000" fill-rule="nonzero"/>
                <path d="M51.707,39.293 C51.3165001,38.9026181 50.6834999,38.9026181 50.293,39.293 L38.293,51.293 C38.0330434,51.5440745 37.9287874,51.9158779 38.0203028,52.2655073 C38.1118183,52.6151368 38.3848632,52.8881817 38.7344927,52.9796972 C39.0841221,53.0712126 39.4559255,52.9669566 39.707,52.707 L51.707,40.707 C52.0973819,40.3165001 52.0973819,39.6834999 51.707,39.293 Z" id="Path" fill="#000000"/>
            </g>
        </g>
    </g>
</svg>
