<?xml version="1.0" encoding="UTF-8" standalone="no"?> <svg width="64" height="64" viewBox="0 0 64 64" fill="none" xmlns="http://www.w3.org/2000/svg">
<path d="M45 3H15C12.7909 3 11 4.79086 11 7V57C11 59.2091 12.7909 61 15 61H45C47.2091 61 49 59.2091 49 57V7C49 4.79086 47.2091 3 45 3Z" fill="#93999A"/>
<path d="M44 49C38.1652 49 32.5695 46.6822 28.4437 42.5564C24.3179 38.4306 22 32.8348 22 27V3H15C13.9391 3 12.9217 3.42143 12.1716 4.17157C11.4214 4.92172 11 5.93913 11 7V57C11 58.0609 11.4214 59.0783 12.1716 59.8284C12.9217 60.5786 13.9391 61 15 61H45C46.0609 61 47.0783 60.5786 47.8284 59.8284C48.5786 59.0783 49 58.0609 49 57V49H44Z" fill="#656B76"/>
<path d="M45 11H15V52H45V11Z" fill="#AAE1F9"/>
<path d="M26 3C26 4.06087 26.4214 5.07828 27.1716 5.82843C27.9217 6.57857 28.9391 7 30 7H43C44.0609 7 45.0783 7.42143 45.8284 8.17157C46.5786 8.92172 47 9.93913 47 11V35C47 35.5304 47.2107 36.0391 47.5858 36.4142C47.9609 36.7893 48.4696 37 49 37V7C49 5.93913 48.5786 4.92172 47.8284 4.17157C47.0783 3.42143 46.0609 3 45 3H26Z" fill="#D0D8DA"/>
<path d="M45 49H44C38.1652 49 32.5695 46.6822 28.4437 42.5564C24.3179 38.4306 22 32.8348 22 27V11H15V52H45V49Z" fill="#57B7EB"/>
<path d="M25 46H19V39L22 36L25 39V46Z" fill="#F9E109"/>
<path d="M21 38V37L19 39V46H25V43.651C23.8311 43.2377 22.819 42.4726 22.1027 41.4606C21.3864 40.4487 21.0012 39.2398 21 38V38Z" fill="#FCBC04"/>
<path d="M49 46C48.7348 46 48.4804 46.1054 48.2929 46.2929C48.1054 46.4804 48 46.7348 48 47V57C48 57.7956 47.6839 58.5587 47.1213 59.1213C46.5587 59.6839 45.7956 60 45 60H15C14.2044 60 13.4413 59.6839 12.8787 59.1213C12.3161 58.5587 12 57.7956 12 57V7C12 6.20435 12.3161 5.44129 12.8787 4.87868C13.4413 4.31607 14.2044 4 15 4H45C45.7956 4 46.5587 4.31607 47.1213 4.87868C47.6839 5.44129 48 6.20435 48 7V17C48 17.2652 48.1054 17.5196 48.2929 17.7071C48.4804 17.8946 48.7348 18 49 18C49.2652 18 49.5196 17.8946 49.7071 17.7071C49.8946 17.5196 50 17.2652 50 17V7C49.9984 5.6744 49.4711 4.40356 48.5338 3.46622C47.5964 2.52888 46.3256 2.00159 45 2H15C13.6744 2.00159 12.4036 2.52888 11.4662 3.46622C10.5289 4.40356 10.0016 5.6744 10 7V57C10.0016 58.3256 10.5289 59.5964 11.4662 60.5338C12.4036 61.4711 13.6744 61.9984 15 62H45C46.3256 61.9984 47.5964 61.4711 48.5338 60.5338C49.4711 59.5964 49.9984 58.3256 50 57V47C50 46.7348 49.8946 46.4804 49.7071 46.2929C49.5196 46.1054 49.2652 46 49 46Z" fill="#434951"/>
<path d="M15 8C15.5523 8 16 7.55228 16 7C16 6.44772 15.5523 6 15 6C14.4477 6 14 6.44772 14 7C14 7.55228 14.4477 8 15 8Z" fill="#434951"/>
<path d="M19 8C19.5523 8 20 7.55228 20 7C20 6.44772 19.5523 6 19 6C18.4477 6 18 6.44772 18 7C18 7.55228 18.4477 8 19 8Z" fill="#434951"/>
<path d="M26 55C25.7348 55 25.4804 55.1054 25.2929 55.2929C25.1054 55.4804 25 55.7348 25 56C25 56.2652 25.1054 56.5196 25.2929 56.7071C25.4804 56.8946 25.7348 57 26 57H34C34.2652 57 34.5196 56.8946 34.7071 56.7071C34.8946 56.5196 35 56.2652 35 56C35 55.7348 34.8946 55.4804 34.7071 55.2929C34.5196 55.1054 34.2652 55 34 55H26Z" fill="#434951"/>
<path d="M46 52V50C46 49.7348 45.8946 49.4804 45.7071 49.2929C45.5196 49.1054 45.2652 49 45 49C44.7348 49 44.4804 49.1054 44.2929 49.2929C44.1054 49.4804 44 49.7348 44 50V51H16V46C16 45.7348 15.8946 45.4804 15.7071 45.2929C15.5196 45.1054 15.2652 45 15 45C14.7348 45 14.4804 45.1054 14.2929 45.2929C14.1054 45.4804 14 45.7348 14 46V52C14 52.2652 14.1054 52.5196 14.2929 52.7071C14.4804 52.8946 14.7348 53 15 53H45C45.2652 53 45.5196 52.8946 45.7071 52.7071C45.8946 52.5196 46 52.2652 46 52Z" fill="#434951"/>
<path d="M45 18C45.2652 18 45.5196 17.8946 45.7071 17.7071C45.8946 17.5196 46 17.2652 46 17V11C46 10.7348 45.8946 10.4804 45.7071 10.2929C45.5196 10.1054 45.2652 10 45 10H15C14.7348 10 14.4804 10.1054 14.2929 10.2929C14.1054 10.4804 14 10.7348 14 11V42C14 42.2652 14.1054 42.5196 14.2929 42.7071C14.4804 42.8946 14.7348 43 15 43C15.2652 43 15.5196 42.8946 15.7071 42.7071C15.8946 42.5196 16 42.2652 16 42V12H44V17C44 17.2652 44.1054 17.5196 44.2929 17.7071C44.4804 17.8946 44.7348 18 45 18Z" fill="#434951"/>
<path d="M61 14H55C54.7711 14 54.5491 14.0785 54.3711 14.2225C54.1931 14.3664 54.0699 14.5671 54.022 14.791L52.906 20H33C32.7348 20 32.4804 20.1054 32.2929 20.2929C32.1054 20.4804 32 20.7348 32 21C32 21.2652 32.1054 21.5196 32.2929 21.7071C32.4804 21.8946 32.7348 22 33 22H34.1L34.544 26H31.135L29.976 20.783C29.9266 20.5609 29.803 20.3623 29.6256 20.22C29.4482 20.0776 29.2275 20 29 20H23C22.8416 20 22.6854 20.0376 22.5443 20.1097C22.4032 20.1819 22.2813 20.2866 22.1887 20.4151C22.096 20.5436 22.0352 20.6923 22.0112 20.849C21.9873 21.0056 22.0009 21.1657 22.051 21.316L25.475 31.588L24.475 31.339C23.9206 31.2007 23.4378 30.8605 23.121 30.385C22.8954 30.047 22.6016 29.7599 22.2583 29.5423C21.9151 29.3247 21.5301 29.1814 21.1281 29.1216C20.7262 29.0618 20.3161 29.0868 19.9244 29.195C19.5327 29.3033 19.168 29.4923 18.8538 29.75C18.5395 30.0077 18.2827 30.3284 18.0999 30.6913C17.9171 31.0543 17.8123 31.4515 17.7922 31.8574C17.7722 32.2632 17.8374 32.6688 17.9835 33.048C18.1297 33.4272 18.3537 33.7716 18.641 34.059L20.586 36L18.293 38.293C18.1055 38.4805 18.0001 38.7348 18 39V46C18 46.2652 18.1054 46.5196 18.2929 46.7071C18.4804 46.8946 18.7348 47 19 47H25C25.2652 47 25.5196 46.8946 25.7071 46.7071C25.8947 46.5196 26 46.2652 26 46V39C25.9999 38.7348 25.8946 38.4805 25.707 38.293L20.059 32.645C19.8881 32.4738 19.7922 32.2419 19.7922 32C19.7922 31.7581 19.8881 31.5262 20.059 31.355C20.1544 31.2601 20.2696 31.1876 20.3963 31.1425C20.5231 31.0975 20.6582 31.0811 20.7921 31.0945C20.9259 31.1078 21.0551 31.1507 21.1704 31.22C21.2858 31.2892 21.3843 31.3831 21.459 31.495C22.0512 32.3848 22.9547 33.0212 23.992 33.279L26.223 33.837L28.049 39.316C28.1155 39.5155 28.2431 39.689 28.4139 39.8118C28.5846 39.9346 28.7897 40.0005 29 40H48.62L48.191 42H29C28.7348 42 28.4804 42.1054 28.2929 42.2929C28.1054 42.4804 28 42.7348 28 43C28 43.2652 28.1054 43.5196 28.2929 43.7071C28.4804 43.8946 28.7348 44 29 44H30.184C30.0656 44.3203 30.0033 44.6586 30 45C30 45.7956 30.3161 46.5587 30.8787 47.1213C31.4413 47.6839 32.2044 48 33 48C33.7957 48 34.5587 47.6839 35.1213 47.1213C35.6839 46.5587 36 45.7956 36 45C35.9967 44.6586 35.9344 44.3203 35.816 44H40.184C40.0656 44.3203 40.0033 44.6586 40 45C40 45.7956 40.3161 46.5587 40.8787 47.1213C41.4413 47.6839 42.2044 48 43 48C43.7957 48 44.5587 47.6839 45.1213 47.1213C45.6839 46.5587 46 45.7956 46 45C45.9967 44.6586 45.9344 44.3203 45.816 44H49C49.2289 44 49.4509 43.9215 49.6289 43.7775C49.8069 43.6336 49.9302 43.4329 49.978 43.209L55.809 16H61C61.2652 16 61.5196 15.8946 61.7071 15.7071C61.8947 15.5196 62 15.2652 62 15C62 14.7348 61.8947 14.4804 61.7071 14.2929C61.5196 14.1054 61.2652 14 61 14ZM24 45H20V42H21C21.2652 42 21.5196 41.8946 21.7071 41.7071C21.8947 41.5196 22 41.2652 22 41C22 40.7348 21.8947 40.4804 21.7071 40.2929C21.5196 40.1054 21.2652 40 21 40H20V39.414L22 37.414L24 39.414V45ZM34 45C34 45.1978 33.9414 45.3911 33.8315 45.5556C33.7216 45.72 33.5654 45.8482 33.3827 45.9239C33.2 45.9996 32.9989 46.0194 32.8049 45.9808C32.6109 45.9422 32.4328 45.847 32.2929 45.7071C32.153 45.5673 32.0578 45.3891 32.0192 45.1951C31.9806 45.0011 32.0004 44.8 32.0761 44.6173C32.1518 44.4346 32.28 44.2784 32.4444 44.1685C32.6089 44.0586 32.8022 44 33 44C33.2652 44 33.5196 44.1054 33.7071 44.2929C33.8946 44.4804 34 44.7348 34 45ZM44 45C44 45.1978 43.9414 45.3911 43.8315 45.5556C43.7216 45.72 43.5654 45.8482 43.3827 45.9239C43.2 45.9996 42.9989 46.0194 42.8049 45.9808C42.6109 45.9422 42.4328 45.847 42.2929 45.7071C42.153 45.5673 42.0578 45.3891 42.0192 45.1951C41.9806 45.0011 42.0004 44.8 42.0761 44.6173C42.1518 44.4346 42.28 44.2784 42.4444 44.1685C42.6089 44.0586 42.8022 44 43 44C43.2652 44 43.5196 44.1054 43.7071 44.2929C43.8946 44.4804 44 44.7348 44 45ZM44 28V32H42V28H44ZM42 26V22H44V26H42ZM46 28H48V32H46V28ZM40 32H37.229L36.784 28H40V32ZM40 34V38H37.9L37.456 34H40ZM42 34H44V38H42V34ZM46 34H48V38H46V34ZM50 32V28H51.192L50.334 32H50ZM50 26V25C50 24.7348 49.8946 24.4804 49.7071 24.2929C49.5196 24.1054 49.2652 24 49 24C48.7348 24 48.4804 24.1054 48.2929 24.2929C48.1054 24.4804 48 24.7348 48 25V26H46V22H52.477L51.62 26H50ZM36.117 22H40V26H36.562L36.117 22ZM34.771 28L35.216 32H32.469L31.58 28H34.771ZM30.42 32H27.72L26.386 28H29.53L30.42 32ZM28.2 22L29.089 26H25.721L24.387 22H28.2ZM29.723 38L28.389 34H30.867L31.755 38H29.723ZM32.915 34H35.44L35.885 38H33.8L32.915 34Z" fill="#434951"/>
<path d="M19 16C18.7348 16 18.4804 16.1054 18.2929 16.2929C18.1054 16.4804 18 16.7348 18 17C18 17.2652 18.1054 17.5196 18.2929 17.7071C18.4804 17.8946 18.7348 18 19 18H41C41.2652 18 41.5196 17.8946 41.7071 17.7071C41.8946 17.5196 42 17.2652 42 17C42 16.7348 41.8946 16.4804 41.7071 16.2929C41.5196 16.1054 41.2652 16 41 16H19Z" fill="#434951"/>
</svg>
