<svg xmlns="http://www.w3.org/2000/svg" viewBox="0 0 64 64"><defs><style>.cls-1{fill:#0071bc;}.cls-2{fill:#1b1464;}</style></defs><g id="Layer_48" data-name="Layer 48"><path class="cls-1" d="M24.6,45.21a1.91,1.91,0,0,0,2.82,0,3.94,3.94,0,0,0,.72-1.81,19.29,19.29,0,0,0,.2-3.07,17.1,17.1,0,0,0-.21-3,3.7,3.7,0,0,0-.73-1.73,1.94,1.94,0,0,0-3.23.72,12,12,0,0,0-.51,4,16.72,16.72,0,0,0,.22,3A3.76,3.76,0,0,0,24.6,45.21Z"/><path class="cls-1" d="M3,51.56A5.65,5.65,0,0,0,8.64,57.2H55.36A5.65,5.65,0,0,0,61,51.56V25.8H3Zm42.59-14.2a6.86,6.86,0,0,1,1.11-.61,8.65,8.65,0,0,0,1.91-1.18,8.35,8.35,0,0,0,1.27-1.39,8.62,8.62,0,0,1,.72-1,.85.85,0,0,1,.63-.18,1,1,0,0,1,.84.41,1.76,1.76,0,0,1,.31,1.11V45.86q0,2-1.35,2a1.25,1.25,0,0,1-1-.4,1.76,1.76,0,0,1-.36-1.2v-9c-1.67,1.28-2.79,1.92-3.37,1.92a1,1,0,0,1-.74-.33,1.07,1.07,0,0,1-.32-.76A.87.87,0,0,1,45.59,37.36ZM40,36.1a2,2,0,0,0-.82-.77A2.39,2.39,0,0,0,38,35.05a2.31,2.31,0,0,0-2,1.14,6.5,6.5,0,0,0-.33.81,3.37,3.37,0,0,1-.52,1,1,1,0,0,1-.85.36,1.11,1.11,0,0,1-.82-.33,1.19,1.19,0,0,1-.33-.89,3.84,3.84,0,0,1,.31-1.42,4.09,4.09,0,0,1,.91-1.34,4.66,4.66,0,0,1,1.54-1,5.82,5.82,0,0,1,2.18-.37,6.43,6.43,0,0,1,2.58.47,3.85,3.85,0,0,1,1.21.87,4,4,0,0,1,.81,1.28,3.85,3.85,0,0,1,.29,1.5,4.26,4.26,0,0,1-.6,2.23A7,7,0,0,1,41.14,41c-.42.38-1.13,1-2.11,1.78a15.84,15.84,0,0,0-2,1.89,4.44,4.44,0,0,0-.48.64h5.14a1.89,1.89,0,0,1,1.18.31,1,1,0,0,1,.4.86,1.16,1.16,0,0,1-.32.82,1.29,1.29,0,0,1-1,.33H34.68a1.56,1.56,0,0,1-1.15-.4,1.33,1.33,0,0,1-.42-1,2.44,2.44,0,0,1,.27-.94,3.39,3.39,0,0,1,.58-.92c.88-.91,1.67-1.68,2.37-2.33a14.91,14.91,0,0,1,1.51-1.28,8.33,8.33,0,0,0,1.34-1.15A4.58,4.58,0,0,0,40,38.42a2.76,2.76,0,0,0,.28-1.19A2.17,2.17,0,0,0,40,36.1ZM21.1,38a8.79,8.79,0,0,1,.5-2.05A4.43,4.43,0,0,1,25.94,33a4.94,4.94,0,0,1,1.84.33,4.07,4.07,0,0,1,1.45,1,5.48,5.48,0,0,1,1.06,1.57A11.33,11.33,0,0,1,31,40.51a17.25,17.25,0,0,1-.19,2.78,6.6,6.6,0,0,1-.73,2.11,4.91,4.91,0,0,1-1.74,1.79,4.57,4.57,0,0,1-2.37.63A4.48,4.48,0,0,1,23.33,47a5.12,5.12,0,0,1-1.79-2.34,8.13,8.13,0,0,1-.45-1.81A14.47,14.47,0,0,1,21,40.67,21.71,21.71,0,0,1,21.1,38ZM16,36.1a2,2,0,0,0-.82-.77A2.38,2.38,0,0,0,14,35.05a2.31,2.31,0,0,0-2,1.14,6.5,6.5,0,0,0-.33.81,3.16,3.16,0,0,1-.52,1,1,1,0,0,1-.85.36A1.11,1.11,0,0,1,9.48,38a1.19,1.19,0,0,1-.33-.89,3.84,3.84,0,0,1,.31-1.42,4.09,4.09,0,0,1,.91-1.34,4.66,4.66,0,0,1,1.54-1,5.82,5.82,0,0,1,2.18-.37,6.43,6.43,0,0,1,2.58.47,3.85,3.85,0,0,1,1.21.87,4,4,0,0,1,.81,1.28,3.85,3.85,0,0,1,.29,1.5,4.26,4.26,0,0,1-.6,2.23A7,7,0,0,1,17.14,41c-.42.38-1.12,1-2.11,1.78a15.84,15.84,0,0,0-2,1.89,4.44,4.44,0,0,0-.48.64h5.14a1.89,1.89,0,0,1,1.18.31,1,1,0,0,1,.4.86,1.16,1.16,0,0,1-.32.82,1.29,1.29,0,0,1-1,.33H10.68a1.58,1.58,0,0,1-1.15-.4,1.32,1.32,0,0,1-.41-1,2.39,2.39,0,0,1,.26-.94,3.39,3.39,0,0,1,.58-.92c.88-.91,1.67-1.68,2.37-2.33a16.13,16.13,0,0,1,1.51-1.28,7.91,7.91,0,0,0,1.34-1.15A4.58,4.58,0,0,0,16,38.42a2.76,2.76,0,0,0,.28-1.19A2.17,2.17,0,0,0,16,36.1Z"/><path class="cls-1" d="M55.36,10.4H51v4.4a1,1,0,0,1-2,0V10.4H45v4.4a1,1,0,0,1-2,0V10.4H39v4.4a1,1,0,0,1-2,0V10.4H33v4.4a1,1,0,0,1-2,0V10.4H27v4.4a1,1,0,0,1-2,0V10.4H21v4.4a1,1,0,0,1-2,0V10.4H15v4.4a1,1,0,0,1-2,0V10.4H8.64A5.65,5.65,0,0,0,3,16V23.8H61V16A5.65,5.65,0,0,0,55.36,10.4ZM50,19.8a4,4,0,0,1-3-1.38,4,4,0,0,1-6,0,4,4,0,0,1-6,0,4,4,0,0,1-6,0,4,4,0,0,1-6,0,4,4,0,0,1-6,0,4,4,0,0,1-7-2.62,1,1,0,0,1,2,0,2,2,0,0,0,4,0,1,1,0,1,1,2,0,2,2,0,0,0,4,0,1,1,0,1,1,2,0,2,2,0,0,0,4,0,1,1,0,1,1,2,0,2,2,0,0,0,4,0,1,1,0,1,1,2,0,2,2,0,0,0,4,0,1,1,0,1,1,2,0,2,2,0,0,0,4,0,1,1,0,1,1,2,0,2,2,0,0,0,4,0,1,1,0,1,1,2,0A4,4,0,0,1,50,19.8Z"/><path class="cls-1" d="M15,7a1,1,0,0,0-2,0v3.4h2Z"/><path class="cls-1" d="M21,7a1,1,0,0,0-2,0v3.4h2Z"/><path class="cls-1" d="M27,7a1,1,0,0,0-2,0v3.4h2Z"/><path class="cls-1" d="M33,7a1,1,0,0,0-2,0v3.4h2Z"/><path class="cls-1" d="M39,7a1,1,0,0,0-2,0v3.4h2Z"/><path class="cls-1" d="M45,7a1,1,0,0,0-2,0v3.4h2Z"/><path class="cls-1" d="M51,7a1,1,0,0,0-2,0v3.4h2Z"/><path class="cls-2" d="M55.36,10.4H8.64A5.65,5.65,0,0,0,3,16V51.56A5.65,5.65,0,0,0,8.64,57.2H55.36A5.65,5.65,0,0,0,61,51.56V16A5.65,5.65,0,0,0,55.36,10.4ZM59,51.56a3.64,3.64,0,0,1-3.64,3.64H8.64A3.64,3.64,0,0,1,5,51.56V25.8H59ZM59,23.8H5V16A3.64,3.64,0,0,1,8.64,12.4H55.36A3.64,3.64,0,0,1,59,16Z"/><path class="cls-2" d="M53,14.8a1,1,0,0,0-1,1,2,2,0,0,1-4,0,1,1,0,1,0-2,0,2,2,0,0,1-4,0,1,1,0,1,0-2,0,2,2,0,0,1-4,0,1,1,0,1,0-2,0,2,2,0,0,1-4,0,1,1,0,1,0-2,0,2,2,0,0,1-4,0,1,1,0,1,0-2,0,2,2,0,0,1-4,0,1,1,0,1,0-2,0,2,2,0,0,1-4,0,1,1,0,0,0-2,0,4,4,0,0,0,7,2.62,4,4,0,0,0,6,0,4,4,0,0,0,6,0,4,4,0,0,0,6,0,4,4,0,0,0,6,0,4,4,0,0,0,6,0,4,4,0,0,0,7-2.62A1,1,0,0,0,53,14.8Z"/></g></svg>